<svg width="27" height="19" viewBox="0 0 27 19" fill="none" xmlns="http://www.w3.org/2000/svg">
<path d="M21.4607 8.05002C21.4607 7.61502 21.6115 7.18002 21.6115 6.60002C21.6115 3.41002 18.8981 0.800018 15.5818 0.800018C13.1699 0.800018 11.2102 2.10502 10.155 3.99002C9.85352 3.84502 9.25055 3.70002 8.79832 3.70002C6.68791 3.70002 5.02974 5.29502 5.02974 7.32502C5.02974 7.61502 5.02974 7.90502 5.18048 8.05002C2.46711 8.48502 0.507446 10.515 0.507446 13.125C0.507446 15.88 2.91934 18.2 5.78345 18.2H20.8578C23.7219 18.2 26.1338 15.88 26.1338 13.125C26.1338 10.515 24.1741 8.34002 21.4607 8.05002Z" fill="white"/>
</svg>
